<svg data-v-423bf9ae="" xmlns="http://www.w3.org/2000/svg" viewBox="0 0 530 90" class="iconLeft"><!----><!----><!----><g data-v-423bf9ae="" id="85ec8c84-8412-4ff0-b193-e81b4693d21b" fill="#ffffff" transform="matrix(4.954468810134828,0,0,4.954468810134828,240.66354520858346,0.235681420787742)"><path d="M3.70 4.01L3.70 4.01L3.70 4.01Q2.73 4.29 2.07 4.96L2.07 4.96L2.07 4.96Q1.42 5.62 1.18 6.36L1.18 6.36L1.18 6.36Q0.94 7.10 1.35 7.64L1.35 7.64L1.35 7.64Q1.76 8.18 3.10 8.86L3.10 8.86L3.10 8.86Q4.45 9.55 4.62 10.03L4.62 10.03L4.62 10.03Q4.80 10.51 4.36 10.95L4.36 10.95L4.36 10.95Q3.93 11.40 3.27 11.33L3.27 11.33L3.27 11.33Q2.61 11.25 2.01 10.83L2.01 10.83L2.01 10.83Q1.40 10.40 1.15 9.95L1.15 9.95L1.15 9.95Q0.89 9.50 1.33 8.80L1.33 8.80L1.26 8.68L-0.16 10.03L-0.16 10.03Q-0.43 10.54-0.09 11.24L-0.09 11.24L-0.09 11.24Q0.26 11.94 0.81 12.31L0.81 12.31L0.81 12.31Q1.37 12.68 2.11 12.71L2.11 12.71L2.11 12.71Q2.86 12.74 3.67 12.13L3.67 12.13L3.67 12.13Q4.48 11.53 5.09 10.76L5.09 10.76L5.09 10.76Q5.69 9.99 5.76 9.17L5.76 9.17L5.76 9.17Q5.83 8.35 5.47 8.02L5.47 8.02L5.47 8.02Q5.11 7.69 3.59 6.90L3.59 6.90L3.59 6.90Q2.08 6.12 2.23 5.53L2.23 5.53L2.23 5.53Q2.37 4.94 3.19 4.87L3.19 4.87L3.19 4.87Q4.01 4.81 4.37 5.29L4.37 5.29L4.37 5.29Q4.73 5.78 4.13 6.39L4.13 6.39L4.27 6.55L5.89 4.97L5.89 4.97Q5.71 4.34 5.19 4.04L5.19 4.04L5.19 4.04Q4.68 3.73 3.70 4.01ZM8.86 6.52L8.86 6.52Q7.93 7.02 6.96 8.07L6.96 8.07L6.96 8.07Q6.00 9.11 5.79 9.85L5.79 9.85L5.79 9.85Q5.59 10.59 6.17 11.61L6.17 11.61L6.17 11.61Q6.74 12.63 7.16 12.68L7.16 12.68L7.16 12.68Q8.05 12.04 8.61 11.63L8.61 11.63L8.61 11.63Q8.65 12.37 9.47 12.73L9.47 12.73L11.14 11.09L10.95 10.94L10.59 11.26L10.59 11.26Q10.21 11.42 10.05 11.14L10.05 11.14L10.05 11.14Q9.88 10.87 9.98 10.47L9.98 10.47L10.64 7.18L10.64 7.18Q10.76 6.68 11.14 6.51L11.14 6.51L8.86 6.52ZM7.85 7.60L9.51 7.60L9.18 8.07L9.13 8.32L8.54 11.25L8.54 11.25Q7.85 11.72 7.23 10.45L7.23 10.45L7.23 10.45Q6.60 9.17 7.85 7.60L7.85 7.60ZM15.91 3.01L13.76 4.74L13.76 4.74Q13.34 5.03 13.01 6.71L13.01 6.71L12.24 6.75L11.18 7.87L12.80 7.85L11.82 12.84L11.82 12.84Q11.55 14.09 11.08 14.31L11.08 14.31L11.08 14.31Q10.62 14.53 9.96 13.82L9.96 13.82L8.72 15.05L8.72 15.05Q10.79 15.29 11.90 14.10L11.90 14.10L11.90 14.10Q13.02 12.91 13.34 11.55L13.34 11.55L14 7.83L14.80 7.81L16.12 6.64L14.23 6.67L14.23 6.67Q14.58 4.76 14.85 4.40L14.85 4.40L14.85 4.40Q15.99 4.01 15.78 5.22L15.78 5.22L16.73 4.56L16.73 4.56Q17.12 4.18 17.00 3.73L17.00 3.73L17.00 3.73Q16.89 3.27 15.91 3.01L15.91 3.01ZM20.38 8.14L20.38 8.14Q21.62 7.12 22.22 8.12L22.22 8.12L22.22 8.12Q22.81 9.13 22.48 10.01L22.48 10.01L22.48 10.01Q22.15 10.90 21.48 11.48L21.48 11.48L21.48 11.48Q21.02 11.36 20.30 8.20L20.30 8.20L20.21 7.97L19.89 6.73L19.89 6.73Q19.58 6.30 19.10 6.77L19.10 6.77L17.56 8.07L17.22 6.73L17.22 6.73Q16.93 6.24 16.43 6.75L16.43 6.75L15.00 8.20L15.16 8.33L15.16 8.33Q15.76 7.72 16.06 8.16L16.06 8.16L17.12 12.10L17.12 12.10Q17.46 13.19 18.27 12.33L18.27 12.33L19.28 11.60L19.18 11.35L18.82 11.57L18.82 11.57Q18.38 11.83 17.62 8.33L17.62 8.33L17.62 8.33Q18.38 7.63 18.74 8.16L18.74 8.16L19.91 12.27L19.91 12.27Q20.26 13.02 20.94 12.33L20.94 12.33L20.94 12.33Q23.39 10.19 23.70 9.24L23.70 9.24L23.70 9.24Q24.01 8.29 23.50 7.33L23.50 7.33L23.50 7.33Q22.98 6.37 22.33 6.43L22.33 6.43L22.33 6.43Q21.68 6.49 20.31 7.88L20.31 7.88L20.38 8.14ZM26.80 6.52L26.80 6.52Q25.87 7.02 24.90 8.07L24.90 8.07L24.90 8.07Q23.93 9.11 23.73 9.85L23.73 9.85L23.73 9.85Q23.53 10.59 24.10 11.61L24.10 11.61L24.10 11.61Q24.68 12.63 25.09 12.68L25.09 12.68L25.09 12.68Q25.99 12.04 26.55 11.63L26.55 11.63L26.55 11.63Q26.59 12.37 27.41 12.73L27.41 12.73L29.08 11.09L28.89 10.94L28.53 11.26L28.53 11.26Q28.15 11.42 27.99 11.14L27.99 11.14L27.99 11.14Q27.82 10.87 27.92 10.47L27.92 10.47L28.58 7.18L28.58 7.18Q28.70 6.68 29.08 6.51L29.08 6.51L26.80 6.52ZM25.79 7.60L27.45 7.60L27.12 8.07L27.06 8.32L26.48 11.25L26.48 11.25Q25.79 11.72 25.16 10.45L25.16 10.45L25.16 10.45Q24.54 9.17 25.79 7.60L25.79 7.60ZM32.77 3.93L32.77 3.93Q32.50 3.99 31.75 4.59L31.75 4.59L31.75 4.59Q31.00 5.20 30.82 5.85L30.82 5.85L30.67 6.68L30.34 6.70L29.07 8.19L29.26 8.35L29.26 8.35Q29.76 7.64 30.47 7.79L30.47 7.79L29.79 11.16L29.79 11.16Q29.57 12.24 30.56 12.77L30.56 12.77L32.36 11.21L32.24 10.99L32.24 10.99Q31.12 11.88 31.13 10.77L31.13 10.77L31.75 7.71L32.48 7.71L33.64 6.71L33.61 6.51L31.90 6.51L31.93 6.38L32.21 4.98L32.21 4.98Q32.27 4.58 32.88 4.07L32.88 4.07L32.77 3.93ZM37.73 3.81L36.21 5.67L36.42 5.76L36.42 5.76Q36.73 5.28 37.21 5.25L37.21 5.25L38.60 5.24L37.45 6.34L37.27 7.30L36.06 8.68L36.13 8.83L36.13 8.83Q36.81 8.37 37.06 8.47L37.06 8.47L36.63 10.77L36.63 10.77Q36.59 11.34 35.04 12.82L35.04 12.82L35.22 12.92L35.22 12.92Q35.57 12.63 37.45 12.73L37.45 12.73L38.81 11.46L36.83 11.48L36.83 11.48Q37.36 11.18 37.88 10.71L37.88 10.71L38.31 8.42L39.11 8.40L40.51 7.21L40.43 7.04L38.60 7.07L38.94 5.20L41.29 5.14L42.75 3.85L42.73 3.71L37.73 3.81ZM43.35 6.52L43.35 6.52Q42.42 7.02 41.46 8.07L41.46 8.07L41.46 8.07Q40.49 9.11 40.29 9.85L40.29 9.85L40.29 9.85Q40.09 10.59 40.66 11.61L40.66 11.61L40.66 11.61Q41.23 12.63 41.65 12.68L41.65 12.68L41.65 12.68Q42.55 12.04 43.11 11.63L43.11 11.63L43.11 11.63Q43.15 12.37 43.96 12.73L43.96 12.73L45.64 11.09L45.45 10.94L45.08 11.26L45.08 11.26Q44.71 11.42 44.54 11.14L44.54 11.14L44.54 11.14Q44.38 10.87 44.47 10.47L44.47 10.47L45.14 7.18L45.14 7.18Q45.25 6.68 45.64 6.51L45.64 6.51L43.35 6.52ZM42.34 7.60L44.00 7.60L43.67 8.07L43.62 8.32L43.03 11.25L43.03 11.25Q42.34 11.72 41.72 10.45L41.72 10.45L41.72 10.45Q41.10 9.17 42.34 7.60L42.34 7.60ZM49.33 3.93L49.33 3.93Q49.06 3.99 48.31 4.59L48.31 4.59L48.31 4.59Q47.56 5.20 47.37 5.85L47.37 5.85L47.22 6.68L46.89 6.70L45.62 8.19L45.82 8.35L45.82 8.35Q46.32 7.64 47.03 7.79L47.03 7.79L46.35 11.16L46.35 11.16Q46.13 12.24 47.11 12.77L47.11 12.77L48.92 11.21L48.79 10.99L48.79 10.99Q47.68 11.88 47.69 10.77L47.69 10.77L48.30 7.71L49.04 7.71L50.20 6.71L50.17 6.51L48.46 6.51L48.49 6.38L48.77 4.98L48.77 4.98Q48.82 4.58 49.44 4.07L49.44 4.07L49.33 3.93ZM50.49 5.36L50.49 5.36L49.83 8.72L49.27 11.53L49.27 11.53Q49.08 12.54 49.85 12.67L49.85 12.67L51.39 11.40L51.28 11.27L50.83 11.60L50.83 11.60Q50.57 11.48 50.78 10.58L50.78 10.58L51.30 8.01L52.16 7.59L52.16 7.59Q53.34 7.55 53.07 8.99L53.07 8.99L52.56 11.50L52.56 11.50Q52.35 12.50 53.09 12.65L53.09 12.65L54.65 11.39L54.54 11.21L54.07 11.58L54.07 11.58Q53.84 11.55 54.00 10.77L54.00 10.77L54.55 8.06L54.55 8.06Q54.71 7.14 54.22 6.75L54.22 6.75L54.22 6.75Q53.73 6.37 53.11 6.47L53.11 6.47L51.30 7.69L51.84 4.98L51.84 4.98Q52.08 3.52 52.71 3.11L52.71 3.11L52.63 2.98L52.63 2.98Q50.78 3.85 50.49 5.36ZM57.62 3.80L56.15 4.94L56.15 4.94Q56.87 5.07 56.72 6.04L56.72 6.04L58.20 5.02L58.20 5.02Q58.42 4.12 57.62 3.80L57.62 3.80ZM57.20 6.44L55.24 7.82L55.32 8.07L55.79 7.77L55.79 7.77Q56.16 7.77 55.87 8.80L55.87 8.80L55.32 11.58L55.32 11.58Q55.19 12.58 55.94 12.71L55.94 12.71L57.54 11.40L57.42 11.25L56.97 11.59L56.97 11.59Q56.59 11.57 56.85 10.53L56.85 10.53L57.42 7.64L57.42 7.64Q57.62 6.57 57.20 6.44L57.20 6.44Z"></path></g><!----><g data-v-423bf9ae="" id="82aa048f-60a6-453a-af9a-601c844e71f9" transform="matrix(1.7403074491820585,0,0,1.7403074491820585,-1.379676747651743,-66.23754818636317)" stroke="none" fill="#7D3A32"><path d="M90.716 58.23a.771.771 0 0 1 .345-.102l-.651-8.221-15.451 8.898 7.379 4.248 8.378-4.823zM38.218 79.959l-.784 9.898 26.347-15.169-8.355-4.635zM38.148 49.908l-.65 8.221c.119.01.239.039.347.102l8.789 5.061h.001l44.49 26.566-.785-9.898-52.192-30.052zM99.914 63.055l7.379-4.248-15.453-8.899-.65 8.221a.799.799 0 0 1 .348.102l8.376 4.824z"></path><path d="M64.904 53.248l8.394 4.613 17.184-9.895a.834.834 0 0 1 .579-.309.827.827 0 0 1 .712.313l17.581 10.121c.014.008.025.02.037.027.026.018.05.033.074.053a.965.965 0 0 1 .112.112c.02.023.036.049.053.074.009.014.02.023.038.061.014.027.025.055.036.082a.634.634 0 0 1 .044.148.532.532 0 0 1 .014.078c.003.027.002.053.002.08 0 .025.001.051-.002.078a.532.532 0 0 1-.014.078.634.634 0 0 1-.018.078c-.007.023-.017.047-.026.07-.011.027-.022.055-.047.105-.005.01-.014.016-.02.023a.717.717 0 0 1-.096.125c-.012.014-.021.025-.035.037a.817.817 0 0 1-.158.119L91.537 69.777a.823.823 0 0 1-.821 0L37.458 38.143 1.573 58.801 37.43 78.514l16.318-9.395-7.517-4.17-8.388 4.828a.815.815 0 0 1-.821 0c-.815-.451-16.51-9.107-17.285-9.568-.514-.305-1.114-.572-1.021-1.271.111-.842 1.209-1.262 1.861-1.637 2.014-1.16 4.028-2.318 6.042-3.479l10.17-5.855a.834.834 0 0 1 .579-.309.83.83 0 0 1 .713.313l53.053 30.545 35.863-19.709L91.125 38.15 64.904 53.248zM127 58.807L91.91 79.949l-.784 9.908L127 69.203z"></path><path d="M21.266 58.807l7.381 4.248 8.377-4.824a.806.806 0 0 1 .346-.102l-.651-8.221-15.453 8.899zM1 58.807v10.396l36.154 20.654-.925-9.908z"></path></g><!----></svg>